<?xml version="1.0" encoding="UTF-8" standalone="no"?><svg xmlns="http://www.w3.org/2000/svg" xmlns:xlink="http://www.w3.org/1999/xlink" contentScriptType="application/ecmascript" contentStyleType="text/css" height="723px" preserveAspectRatio="none" style="width:1654px;height:723px;" version="1.1" viewBox="0 0 1654 723" width="1654px" zoomAndPan="magnify"><defs><filter height="300%" id="f13krkjuuv54fq" width="300%" x="-1" y="-1"><feGaussianBlur result="blurOut" stdDeviation="2.0"/><feColorMatrix in="blurOut" result="blurOut2" type="matrix" values="0 0 0 0 0 0 0 0 0 0 0 0 0 0 0 0 0 0 .4 0"/><feOffset dx="4.0" dy="4.0" in="blurOut2" result="blurOut3"/><feBlend in="SourceGraphic" in2="blurOut3" mode="normal"/></filter></defs><g><!--class Person--><rect fill="#FEFECE" filter="url(#f13krkjuuv54fq)" height="150.4375" id="Person" style="stroke: #A80036; stroke-width: 1.5;" width="411" x="570.6941" y="8"/><ellipse cx="749.9441" cy="24" fill="#ADD1B2" rx="11" ry="11" style="stroke: #A80036; stroke-width: 1.0;"/><path d="M752.9129,29.6406 Q752.3347,29.9375 751.6941,30.0781 Q751.0535,30.2344 750.3504,30.2344 Q747.8504,30.2344 746.5222,28.5938 Q745.2097,26.9375 745.2097,23.8125 Q745.2097,20.6875 746.5222,19.0313 Q747.8504,17.375 750.3504,17.375 Q751.0535,17.375 751.6941,17.5313 Q752.3504,17.6875 752.9129,17.9844 L752.9129,20.7031 Q752.2879,20.125 751.6941,19.8594 Q751.1004,19.5781 750.4754,19.5781 Q749.1316,19.5781 748.4441,20.6563 Q747.7566,21.7188 747.7566,23.8125 Q747.7566,25.9063 748.4441,26.9844 Q749.1316,28.0469 750.4754,28.0469 Q751.1004,28.0469 751.6941,27.7813 Q752.2879,27.5 752.9129,26.9219 L752.9129,29.6406 Z "/><text fill="#000000" font-family="sans-serif" font-size="12" lengthAdjust="spacingAndGlyphs" textLength="44" x="770.4441" y="28.1543">Person</text><line style="stroke: #A80036; stroke-width: 1.5;" x1="571.6941" x2="980.6941" y1="40" y2="40"/><rect fill="none" height="6" style="stroke: #C82930; stroke-width: 1.0;" width="6" x="578.6941" y="48"/><text fill="#000000" font-family="sans-serif" font-size="11" lengthAdjust="spacingAndGlyphs" textLength="74" x="590.6941" y="54.2104">name: String</text><rect fill="none" height="6" style="stroke: #C82930; stroke-width: 1.0;" width="6" x="578.6941" y="60.8047"/><text fill="#000000" font-family="sans-serif" font-size="11" lengthAdjust="spacingAndGlyphs" textLength="89" x="590.6941" y="67.0151">address: String</text><rect fill="none" height="6" style="stroke: #C82930; stroke-width: 1.0;" width="6" x="578.6941" y="73.6094"/><text fill="#000000" font-family="sans-serif" font-size="11" lengthAdjust="spacingAndGlyphs" textLength="77" x="590.6941" y="79.8198">phone: String</text><rect fill="none" height="6" style="stroke: #C82930; stroke-width: 1.0;" width="6" x="578.6941" y="86.4141"/><text fill="#000000" font-family="sans-serif" font-size="11" lengthAdjust="spacingAndGlyphs" textLength="73" x="590.6941" y="92.6245">email: String</text><line style="stroke: #A80036; stroke-width: 1.5;" x1="571.6941" x2="980.6941" y1="99.2188" y2="99.2188"/><ellipse cx="581.6941" cy="110.2188" fill="#84BE84" rx="3" ry="3" style="stroke: #038048; stroke-width: 1.0;"/><text fill="#000000" font-family="sans-serif" font-size="11" lengthAdjust="spacingAndGlyphs" textLength="48" x="590.6941" y="113.4292">Person()</text><ellipse cx="581.6941" cy="123.0234" fill="#84BE84" rx="3" ry="3" style="stroke: #038048; stroke-width: 1.0;"/><text fill="#000000" font-family="sans-serif" font-size="11" lengthAdjust="spacingAndGlyphs" textLength="219" x="590.6941" y="126.2339">Person(name: String, address: String)</text><ellipse cx="581.6941" cy="135.8281" fill="#84BE84" rx="3" ry="3" style="stroke: #038048; stroke-width: 1.0;"/><text fill="#000000" font-family="sans-serif" font-size="11" lengthAdjust="spacingAndGlyphs" textLength="385" x="590.6941" y="139.0386">Person(name: String, address: String, phone: String, email: String)</text><ellipse cx="581.6941" cy="148.6328" fill="#84BE84" rx="3" ry="3" style="stroke: #038048; stroke-width: 1.0;"/><text fill="#000000" font-family="sans-serif" font-size="11" lengthAdjust="spacingAndGlyphs" textLength="95" x="590.6941" y="151.8433">toString(): String</text><!--class Employee--><rect fill="#FEFECE" filter="url(#f13krkjuuv54fq)" height="124.8281" id="Employee" style="stroke: #A80036; stroke-width: 1.5;" width="678" x="131.1941" y="218"/><ellipse cx="435.9441" cy="234" fill="#ADD1B2" rx="11" ry="11" style="stroke: #A80036; stroke-width: 1.0;"/><path d="M438.9129,239.6406 Q438.3347,239.9375 437.6941,240.0781 Q437.0535,240.2344 436.3504,240.2344 Q433.8504,240.2344 432.5222,238.5938 Q431.2097,236.9375 431.2097,233.8125 Q431.2097,230.6875 432.5222,229.0313 Q433.8504,227.375 436.3504,227.375 Q437.0535,227.375 437.6941,227.5313 Q438.3504,227.6875 438.9129,227.9844 L438.9129,230.7031 Q438.2879,230.125 437.6941,229.8594 Q437.1004,229.5781 436.4754,229.5781 Q435.1316,229.5781 434.4441,230.6563 Q433.7566,231.7188 433.7566,233.8125 Q433.7566,235.9063 434.4441,236.9844 Q435.1316,238.0469 436.4754,238.0469 Q437.1004,238.0469 437.6941,237.7813 Q438.2879,237.5 438.9129,236.9219 L438.9129,239.6406 Z "/><text fill="#000000" font-family="sans-serif" font-size="12" lengthAdjust="spacingAndGlyphs" textLength="60" x="456.4441" y="238.1543">Employee</text><line style="stroke: #A80036; stroke-width: 1.5;" x1="132.1941" x2="808.1941" y1="250" y2="250"/><rect fill="none" height="6" style="stroke: #C82930; stroke-width: 1.0;" width="6" x="139.1941" y="258"/><text fill="#000000" font-family="sans-serif" font-size="11" lengthAdjust="spacingAndGlyphs" textLength="73" x="151.1941" y="264.2104">office: String</text><rect fill="none" height="6" style="stroke: #C82930; stroke-width: 1.0;" width="6" x="139.1941" y="270.8047"/><text fill="#000000" font-family="sans-serif" font-size="11" lengthAdjust="spacingAndGlyphs" textLength="81" x="151.1941" y="277.0151">salary: double</text><rect fill="none" height="6" style="stroke: #C82930; stroke-width: 1.0;" width="6" x="139.1941" y="283.6094"/><text fill="#000000" font-family="sans-serif" font-size="11" lengthAdjust="spacingAndGlyphs" textLength="74" x="151.1941" y="289.8198">data: MyData</text><line style="stroke: #A80036; stroke-width: 1.5;" x1="132.1941" x2="808.1941" y1="296.4141" y2="296.4141"/><ellipse cx="142.1941" cy="307.4141" fill="#84BE84" rx="3" ry="3" style="stroke: #038048; stroke-width: 1.0;"/><text fill="#000000" font-family="sans-serif" font-size="11" lengthAdjust="spacingAndGlyphs" textLength="63" x="151.1941" y="310.6245">Employee()</text><ellipse cx="142.1941" cy="320.2188" fill="#84BE84" rx="3" ry="3" style="stroke: #038048; stroke-width: 1.0;"/><text fill="#000000" font-family="sans-serif" font-size="11" lengthAdjust="spacingAndGlyphs" textLength="652" x="151.1941" y="323.4292">Employee(name: String, address: String, phone: String, email: String, office: String, salary: double, date: MyDate)</text><ellipse cx="142.1941" cy="333.0234" fill="#84BE84" rx="3" ry="3" style="stroke: #038048; stroke-width: 1.0;"/><text fill="#000000" font-family="sans-serif" font-size="11" lengthAdjust="spacingAndGlyphs" textLength="91" x="151.1941" y="336.2339">toString():String</text><!--class MyData--><rect fill="#FEFECE" filter="url(#f13krkjuuv54fq)" height="124.8281" id="MyData" style="stroke: #A80036; stroke-width: 1.5;" width="238" x="351.1941" y="588"/><ellipse cx="442.9441" cy="604" fill="#ADD1B2" rx="11" ry="11" style="stroke: #A80036; stroke-width: 1.0;"/><path d="M445.9129,609.6406 Q445.3347,609.9375 444.6941,610.0781 Q444.0535,610.2344 443.3504,610.2344 Q440.8504,610.2344 439.5222,608.5938 Q438.2097,606.9375 438.2097,603.8125 Q438.2097,600.6875 439.5222,599.0313 Q440.8504,597.375 443.3504,597.375 Q444.0535,597.375 444.6941,597.5313 Q445.3504,597.6875 445.9129,597.9844 L445.9129,600.7031 Q445.2879,600.125 444.6941,599.8594 Q444.1004,599.5781 443.4754,599.5781 Q442.1316,599.5781 441.4441,600.6563 Q440.7566,601.7188 440.7566,603.8125 Q440.7566,605.9063 441.4441,606.9844 Q442.1316,608.0469 443.4754,608.0469 Q444.1004,608.0469 444.6941,607.7813 Q445.2879,607.5 445.9129,606.9219 L445.9129,609.6406 Z "/><text fill="#000000" font-family="sans-serif" font-size="12" lengthAdjust="spacingAndGlyphs" textLength="46" x="463.4441" y="608.1543">MyData</text><line style="stroke: #A80036; stroke-width: 1.5;" x1="352.1941" x2="588.1941" y1="620" y2="620"/><rect fill="none" height="6" style="stroke: #C82930; stroke-width: 1.0;" width="6" x="359.1941" y="628"/><text fill="#000000" font-family="sans-serif" font-size="11" lengthAdjust="spacingAndGlyphs" textLength="43" x="371.1941" y="634.2104">year:int</text><rect fill="none" height="6" style="stroke: #C82930; stroke-width: 1.0;" width="6" x="359.1941" y="640.8047"/><text fill="#000000" font-family="sans-serif" font-size="11" lengthAdjust="spacingAndGlyphs" textLength="54" x="371.1941" y="647.0151">month:int</text><rect fill="none" height="6" style="stroke: #C82930; stroke-width: 1.0;" width="6" x="359.1941" y="653.6094"/><text fill="#000000" font-family="sans-serif" font-size="11" lengthAdjust="spacingAndGlyphs" textLength="38" x="371.1941" y="659.8198">day:int</text><line style="stroke: #A80036; stroke-width: 1.5;" x1="352.1941" x2="588.1941" y1="666.4141" y2="666.4141"/><ellipse cx="362.1941" cy="677.4141" fill="#84BE84" rx="3" ry="3" style="stroke: #038048; stroke-width: 1.0;"/><text fill="#000000" font-family="sans-serif" font-size="11" lengthAdjust="spacingAndGlyphs" textLength="49" x="371.1941" y="680.6245">MyDate()</text><ellipse cx="362.1941" cy="690.2188" fill="#84BE84" rx="3" ry="3" style="stroke: #038048; stroke-width: 1.0;"/><text fill="#000000" font-family="sans-serif" font-size="11" lengthAdjust="spacingAndGlyphs" textLength="212" x="371.1941" y="693.4292">MyDate(year: int, month: int, day: int)</text><ellipse cx="362.1941" cy="703.0234" fill="#84BE84" rx="3" ry="3" style="stroke: #038048; stroke-width: 1.0;"/><text fill="#000000" font-family="sans-serif" font-size="11" lengthAdjust="spacingAndGlyphs" textLength="95" x="371.1941" y="706.2339">toString(): String</text><!--class Student--><rect fill="#FEFECE" filter="url(#f13krkjuuv54fq)" height="112.0234" id="Student" style="stroke: #A80036; stroke-width: 1.5;" width="478" x="844.1941" y="224.5"/><ellipse cx="1053.9441" cy="240.5" fill="#ADD1B2" rx="11" ry="11" style="stroke: #A80036; stroke-width: 1.0;"/><path d="M1056.9129,246.1406 Q1056.3347,246.4375 1055.6941,246.5781 Q1055.0535,246.7344 1054.3504,246.7344 Q1051.8504,246.7344 1050.5222,245.0938 Q1049.2097,243.4375 1049.2097,240.3125 Q1049.2097,237.1875 1050.5222,235.5313 Q1051.8504,233.875 1054.3504,233.875 Q1055.0535,233.875 1055.6941,234.0313 Q1056.3504,234.1875 1056.9129,234.4844 L1056.9129,237.2031 Q1056.2879,236.625 1055.6941,236.3594 Q1055.1004,236.0781 1054.4754,236.0781 Q1053.1316,236.0781 1052.4441,237.1563 Q1051.7566,238.2188 1051.7566,240.3125 Q1051.7566,242.4063 1052.4441,243.4844 Q1053.1316,244.5469 1054.4754,244.5469 Q1055.1004,244.5469 1055.6941,244.2813 Q1056.2879,244 1056.9129,243.4219 L1056.9129,246.1406 Z "/><text fill="#000000" font-family="sans-serif" font-size="12" lengthAdjust="spacingAndGlyphs" textLength="50" x="1074.4441" y="244.6543">Student</text><line style="stroke: #A80036; stroke-width: 1.5;" x1="845.1941" x2="1321.1941" y1="256.5" y2="256.5"/><rect fill="none" height="6" style="stroke: #C82930; stroke-width: 1.0;" width="6" x="852.1941" y="264.5"/><text fill="#000000" font-family="sans-serif" font-size="11" lengthAdjust="spacingAndGlyphs" textLength="55" x="864.1941" y="270.7104">grade: int</text><line style="stroke: #A80036; stroke-width: 1.5;" x1="845.1941" x2="1321.1941" y1="277.3047" y2="277.3047"/><ellipse cx="855.1941" cy="288.3047" fill="#84BE84" rx="3" ry="3" style="stroke: #038048; stroke-width: 1.0;"/><text fill="#000000" font-family="sans-serif" font-size="11" lengthAdjust="spacingAndGlyphs" textLength="52" x="864.1941" y="291.5151">Student()</text><ellipse cx="855.1941" cy="301.1094" fill="#84BE84" rx="3" ry="3" style="stroke: #038048; stroke-width: 1.0;"/><text fill="#000000" font-family="sans-serif" font-size="11" lengthAdjust="spacingAndGlyphs" textLength="107" x="864.1941" y="304.3198">Student(grade: int)</text><ellipse cx="855.1941" cy="313.9141" fill="#84BE84" rx="3" ry="3" style="stroke: #038048; stroke-width: 1.0;"/><text fill="#000000" font-family="sans-serif" font-size="11" lengthAdjust="spacingAndGlyphs" textLength="452" x="864.1941" y="317.1245">Student(name: String, address: String, phone: String, email: String, grade: int)</text><ellipse cx="855.1941" cy="326.7188" fill="#84BE84" rx="3" ry="3" style="stroke: #038048; stroke-width: 1.0;"/><text fill="#000000" font-family="sans-serif" font-size="11" lengthAdjust="spacingAndGlyphs" textLength="95" x="864.1941" y="329.9292">toString(): String</text><!--class Faculty--><rect fill="#FEFECE" filter="url(#f13krkjuuv54fq)" height="124.8281" id="Faculty" style="stroke: #A80036; stroke-width: 1.5;" width="843" x="48.6941" y="403"/><ellipse cx="443.9441" cy="419" fill="#ADD1B2" rx="11" ry="11" style="stroke: #A80036; stroke-width: 1.0;"/><path d="M446.9129,424.6406 Q446.3347,424.9375 445.6941,425.0781 Q445.0535,425.2344 444.3504,425.2344 Q441.8504,425.2344 440.5222,423.5938 Q439.2097,421.9375 439.2097,418.8125 Q439.2097,415.6875 440.5222,414.0313 Q441.8504,412.375 444.3504,412.375 Q445.0535,412.375 445.6941,412.5313 Q446.3504,412.6875 446.9129,412.9844 L446.9129,415.7031 Q446.2879,415.125 445.6941,414.8594 Q445.1004,414.5781 444.4754,414.5781 Q443.1316,414.5781 442.4441,415.6563 Q441.7566,416.7188 441.7566,418.8125 Q441.7566,420.9063 442.4441,421.9844 Q443.1316,423.0469 444.4754,423.0469 Q445.1004,423.0469 445.6941,422.7813 Q446.2879,422.5 446.9129,421.9219 L446.9129,424.6406 Z "/><text fill="#000000" font-family="sans-serif" font-size="12" lengthAdjust="spacingAndGlyphs" textLength="44" x="464.4441" y="423.1543">Faculty</text><line style="stroke: #A80036; stroke-width: 1.5;" x1="49.6941" x2="890.6941" y1="435" y2="435"/><rect fill="none" height="6" style="stroke: #C82930; stroke-width: 1.0;" width="6" x="56.6941" y="443"/><text fill="#000000" font-family="sans-serif" font-size="11" lengthAdjust="spacingAndGlyphs" textLength="97" x="68.6941" y="449.2104">workTime: String</text><rect fill="none" height="6" style="stroke: #C82930; stroke-width: 1.0;" width="6" x="56.6941" y="455.8047"/><text fill="#000000" font-family="sans-serif" font-size="11" lengthAdjust="spacingAndGlyphs" textLength="68" x="68.6941" y="462.0151">level: String</text><line style="stroke: #A80036; stroke-width: 1.5;" x1="49.6941" x2="890.6941" y1="468.6094" y2="468.6094"/><ellipse cx="59.6941" cy="479.6094" fill="#84BE84" rx="3" ry="3" style="stroke: #038048; stroke-width: 1.0;"/><text fill="#000000" font-family="sans-serif" font-size="11" lengthAdjust="spacingAndGlyphs" textLength="47" x="68.6941" y="482.8198">Faculty()</text><ellipse cx="59.6941" cy="492.4141" fill="#84BE84" rx="3" ry="3" style="stroke: #038048; stroke-width: 1.0;"/><text fill="#000000" font-family="sans-serif" font-size="11" lengthAdjust="spacingAndGlyphs" textLength="220" x="68.6941" y="495.6245">Faculty(workTime: String, level: String)</text><ellipse cx="59.6941" cy="505.2188" fill="#84BE84" rx="3" ry="3" style="stroke: #038048; stroke-width: 1.0;"/><text fill="#000000" font-family="sans-serif" font-size="11" lengthAdjust="spacingAndGlyphs" textLength="817" x="68.6941" y="508.4292">Faculty(name: String, address: String, phone: String, email: String, office: String, salary: double, data: MyData, workTime: String, level: String)</text><ellipse cx="59.6941" cy="518.0234" fill="#84BE84" rx="3" ry="3" style="stroke: #038048; stroke-width: 1.0;"/><text fill="#000000" font-family="sans-serif" font-size="11" lengthAdjust="spacingAndGlyphs" textLength="95" x="68.6941" y="521.2339">toString(): String</text><!--class Staff--><rect fill="#FEFECE" filter="url(#f13krkjuuv54fq)" height="112.0234" id="Staff" style="stroke: #A80036; stroke-width: 1.5;" width="717" x="926.6941" y="409.5"/><ellipse cx="1266.4441" cy="425.5" fill="#ADD1B2" rx="11" ry="11" style="stroke: #A80036; stroke-width: 1.0;"/><path d="M1269.4129,431.1406 Q1268.8347,431.4375 1268.1941,431.5781 Q1267.5535,431.7344 1266.8504,431.7344 Q1264.3504,431.7344 1263.0222,430.0938 Q1261.7097,428.4375 1261.7097,425.3125 Q1261.7097,422.1875 1263.0222,420.5313 Q1264.3504,418.875 1266.8504,418.875 Q1267.5535,418.875 1268.1941,419.0313 Q1268.8504,419.1875 1269.4129,419.4844 L1269.4129,422.2031 Q1268.7879,421.625 1268.1941,421.3594 Q1267.6004,421.0781 1266.9754,421.0781 Q1265.6316,421.0781 1264.9441,422.1563 Q1264.2566,423.2188 1264.2566,425.3125 Q1264.2566,427.4063 1264.9441,428.4844 Q1265.6316,429.5469 1266.9754,429.5469 Q1267.6004,429.5469 1268.1941,429.2813 Q1268.7879,429 1269.4129,428.4219 L1269.4129,431.1406 Z "/><text fill="#000000" font-family="sans-serif" font-size="12" lengthAdjust="spacingAndGlyphs" textLength="29" x="1286.9441" y="429.6543">Staff</text><line style="stroke: #A80036; stroke-width: 1.5;" x1="927.6941" x2="1642.6941" y1="441.5" y2="441.5"/><rect fill="none" height="6" style="stroke: #C82930; stroke-width: 1.0;" width="6" x="934.6941" y="449.5"/><text fill="#000000" font-family="sans-serif" font-size="11" lengthAdjust="spacingAndGlyphs" textLength="63" x="946.6941" y="455.7104">title: String</text><line style="stroke: #A80036; stroke-width: 1.5;" x1="927.6941" x2="1642.6941" y1="462.3047" y2="462.3047"/><ellipse cx="937.6941" cy="473.3047" fill="#84BE84" rx="3" ry="3" style="stroke: #038048; stroke-width: 1.0;"/><text fill="#000000" font-family="sans-serif" font-size="11" lengthAdjust="spacingAndGlyphs" textLength="35" x="946.6941" y="476.5151">Staff()</text><ellipse cx="937.6941" cy="486.1094" fill="#84BE84" rx="3" ry="3" style="stroke: #038048; stroke-width: 1.0;"/><text fill="#000000" font-family="sans-serif" font-size="11" lengthAdjust="spacingAndGlyphs" textLength="101" x="946.6941" y="489.3198">Staff(Title: String)</text><ellipse cx="937.6941" cy="498.9141" fill="#84BE84" rx="3" ry="3" style="stroke: #038048; stroke-width: 1.0;"/><text fill="#000000" font-family="sans-serif" font-size="11" lengthAdjust="spacingAndGlyphs" textLength="691" x="946.6941" y="502.1245">Staff(name: String, address: String, phone: String, email: String, office: String, salary: double, data: MyData title: String)</text><ellipse cx="937.6941" cy="511.7188" fill="#84BE84" rx="3" ry="3" style="stroke: #038048; stroke-width: 1.0;"/><text fill="#000000" font-family="sans-serif" font-size="11" lengthAdjust="spacingAndGlyphs" textLength="95" x="946.6941" y="514.9292">toString(): String</text><!--reverse link Person to Employee--><path d="M642.7171,169.1494 C617.429,185.471 591.4175,202.2594 567.5072,217.6917 " fill="none" id="Person&lt;-Employee" style="stroke: #A80036; stroke-width: 1.0;"/><polygon fill="none" points="639.0358,163.194,659.6357,158.2297,646.6278,174.9568,639.0358,163.194" style="stroke: #A80036; stroke-width: 1.0;"/><!--reverse link Employee to MyData--><path d="M133.652,347.1027 C85.8843,362.9701 47.4241,381.6211 31.1941,403 C-2.398,447.2491 -2.398,483.7509 31.1941,528 C69.8587,578.9308 234.687,614.38 350.961,633.5951 " fill="none" id="Employee&lt;-MyData" style="stroke: #A80036; stroke-width: 1.0;"/><polygon fill="#FFFFFF" points="146.3294,343.0223,139.3924,341.053,134.9065,346.6989,141.8435,348.6682,146.3294,343.0223" style="stroke: #A80036; stroke-width: 1.0;"/><!--reverse link Person to Student--><path d="M910.0709,169.1259 C939.0786,187.7872 969.0367,207.06 995.7097,224.2193 " fill="none" id="Person&lt;-Student" style="stroke: #A80036; stroke-width: 1.0;"/><polygon fill="none" points="906.1662,174.9374,893.1334,158.2297,913.7407,163.1634,906.1662,174.9374" style="stroke: #A80036; stroke-width: 1.0;"/><!--reverse link Employee to Faculty--><path d="M470.1941,363.5531 C470.1941,376.7849 470.1941,390.2773 470.1941,402.9319 " fill="none" id="Employee&lt;-Faculty" style="stroke: #A80036; stroke-width: 1.0;"/><polygon fill="none" points="463.1942,363.1326,470.1941,343.1326,477.1942,363.1325,463.1942,363.1326" style="stroke: #A80036; stroke-width: 1.0;"/><!--reverse link Employee to Staff--><path d="M765.1349,347.4497 C854.7292,367.7871 952.2005,389.9125 1038.2882,409.4539 " fill="none" id="Employee&lt;-Staff" style="stroke: #A80036; stroke-width: 1.0;"/><polygon fill="none" points="763.502,354.2572,745.5477,343.0036,766.6011,340.6046,763.502,354.2572" style="stroke: #A80036; stroke-width: 1.0;"/><!--reverse link Faculty to MyData--><path d="M470.1941,541.4958 C470.1941,556.9395 470.1941,573.0175 470.1941,587.9319 " fill="none" id="Faculty&lt;-MyData" style="stroke: #A80036; stroke-width: 1.0;"/><polygon fill="#FFFFFF" points="470.1941,528.1326,466.1941,534.1326,470.1941,540.1326,474.1941,534.1326,470.1941,528.1326" style="stroke: #A80036; stroke-width: 1.0;"/><!--reverse link Staff to MyData--><path d="M1025.7278,524.3973 C879.2772,557.6407 703.3048,597.5853 589.2311,623.4793 " fill="none" id="Staff&lt;-MyData" style="stroke: #A80036; stroke-width: 1.0;"/><polygon fill="#FFFFFF" points="1038.4555,521.5081,1031.7189,518.9356,1026.7532,524.1646,1033.4898,526.7371,1038.4555,521.5081" style="stroke: #A80036; stroke-width: 1.0;"/><!--
@startuml inclass02
class Person {
    -name: String
    -address: String
    -phone: String
    -email: String
    +Person()
    +Person(name: String, address: String)
    +Person(name: String, address: String, phone: String, email: String)
    +toString(): String
}

class Employee {
    -office: String
    -salary: double
    -data: MyData
    +Employee()
    +Employee(name: String, address: String, phone: String, email: String, office: String, salary: double, date: MyDate)
    +toString():String
}

class MyData {
    -year:int
    -month:int
    -day:int
    +MyDate()
    +MyDate(year: int, month: int, day: int)
    +toString(): String
}

class Student {
    -grade: int
    +Student()
    +Student(grade: int)
    +Student(name: String, address: String, phone: String, email: String, grade: int)
    +toString(): String
}

class Faculty {
    -workTime: String
    -level: String
    +Faculty()
    +Faculty(workTime: String, level: String)
    +Faculty(name: String, address: String, phone: String, email: String, office: String, salary: double, data: MyData, workTime: String, level: String)
    +toString(): String
}

class Staff {
    -title: String
    +Staff()
    +Staff(Title: String)
    +Staff(name: String, address: String, phone: String, email: String, office: String, salary: double, data: MyData title: String)
    +toString(): String
}

Person <|- - Employee
Employee o- - MyData
Person <|- - Student
Employee <|- -Faculty
Employee <|- - Staff
Faculty o- - MyData
Staff o- - MyData
@enduml

PlantUML version 1.2019.09(Tue Aug 27 00:19:51 CST 2019)
(GPL source distribution)
Java Runtime: OpenJDK Runtime Environment
JVM: Eclipse OpenJ9 VM
Java Version: 13.0.2+8
Operating System: Linux
OS Version: 4.19.84-microsoft-standard
Default Encoding: UTF-8
Language: c.u
Country: US
--></g></svg>